<svg xmlns="http://www.w3.org/2000/svg" viewBox="0 0 980 720" font-family="Helvetica,Arial,sans-serif">
<style>.ptitle{font-size:19px;fill:#555;text-anchor:middle}.alab{font-size:12.5px;fill:#333;font-weight:600;text-anchor:middle}.aval{font-size:12px;fill:#666;text-anchor:middle}.t{font-size:23px;fill:#444}.leg{font-size:12px;fill:#555}</style>
<rect width="980" height="720" fill="white"/>
<text x="24" y="30" class="t">Where the water goes — average year by type (CalSim3, s0020)</text>
<text x="213.2" y="46" class="ptitle">Wet year (average of 32)</text>
<polygon points="62.1,116.3 59.1,104.3 51.9,99.3 50.1,96.4 51.6,93.0 56.2,94.4 56.0,88.3 54.5,86.7 225.7,86.9 225.6,253.0 324.5,351.6 380.1,410.6 437.8,474.6 437.8,481.8 441.0,487.7 444.3,490.8 446.1,496.3 445.6,497.1 447.8,500.8 447.6,504.8 449.6,505.2 455.9,510.8 457.7,515.6 456.4,515.8 453.8,519.8 445.7,525.4 445.6,528.9 441.7,533.9 442.8,535.5 442.1,535.7 443.0,537.5 441.9,538.1 442.0,540.5 443.3,546.4 441.9,548.2 442.6,549.0 441.5,552.9 442.2,555.0 439.5,558.0 437.5,562.5 434.2,563.2 435.3,566.1 434.0,568.9 436.3,571.3 435.0,580.8 436.6,583.8 437.3,582.9 438.4,584.1 442.3,584.0 443.4,587.2 444.4,587.2 444.3,594.2 441.9,597.0 442.1,599.1 438.5,600.7 435.1,599.7 434.4,601.2 336.2,611.8 335.4,606.6 333.6,606.7 332.0,604.7 330.7,594.5 331.5,591.0 329.4,581.5 325.8,573.9 321.7,568.3 314.9,562.9 312.0,558.4 302.7,551.3 299.7,547.0 292.1,549.1 286.2,545.4 285.6,541.1 287.0,538.6 282.7,530.9 275.9,531.3 272.5,533.1 269.6,530.9 258.9,528.0 256.6,526.7 251.9,517.1 242.0,510.1 239.4,509.9 236.9,511.6 219.8,506.8 207.6,508.5 204.9,506.9 203.5,503.1 198.6,501.0 197.4,498.3 199.3,491.6 197.9,488.7 199.0,483.7 196.6,480.2 198.4,469.3 194.0,468.3 189.3,464.4 187.6,460.9 189.1,455.4 188.7,453.0 184.4,451.5 178.1,442.4 173.3,440.1 170.5,432.4 166.3,428.0 163.9,422.4 161.1,420.5 157.3,412.2 151.3,407.6 148.2,403.5 147.3,396.0 144.8,387.2 146.5,383.4 143.5,368.8 136.6,364.6 134.1,360.8 131.7,360.2 128.2,354.0 127.4,350.0 128.1,344.5 126.4,339.4 123.8,336.1 123.3,320.1 119.8,316.8 116.2,315.9 111.4,309.9 108.8,311.7 104.3,310.7 103.6,308.0 106.4,300.1 101.7,292.0 101.7,289.2 100.5,286.9 98.3,283.9 92.7,280.1 86.8,270.7 76.0,258.9 75.0,255.1 76.8,252.5 76.9,250.7 71.6,233.7 72.4,225.6 74.0,222.5 71.4,209.7 64.3,199.1 62.2,197.5 61.4,194.0 58.3,192.3 51.2,185.0 50.5,177.5 48.5,173.8 51.2,164.4 58.3,149.3 59.9,143.5 60.2,142.0 58.5,139.5 57.5,134.6 59.7,131.8 61.1,126.0 58.8,125.3 57.9,123.0 59.3,120.7 61.9,120.9 62.1,116.3" fill="#ececec" stroke="#b5b5b5" stroke-width="1"/>
<polygon points="114.3,176.4 114.9,179.4 115.4,182.4 115.9,185.3 116.5,188.2 117.0,191.1 117.6,193.9 118.1,196.7 118.7,199.4 119.3,202.1 119.8,204.8 120.4,207.4 120.9,210.0 121.5,212.5 122.0,215.0 122.6,217.5 123.1,219.9 123.7,222.3 124.2,224.6 124.7,227.0 125.2,229.3 125.7,231.5 126.2,233.7 126.6,235.9 127.1,238.1 127.5,240.3 128.0,242.4 128.4,244.5 128.7,246.6 129.1,248.6 129.5,250.6 129.8,252.6 130.1,254.6 130.4,256.6 130.7,258.5 130.9,260.5 131.1,262.4 131.3,264.4 117.4,265.9 154.4,286.2 190.3,258.2 176.3,259.7 176.1,257.4 175.8,255.0 175.5,252.6 175.2,250.2 174.8,247.8 174.5,245.5 174.1,243.1 173.7,240.7 173.3,238.4 172.8,236.0 172.4,233.7 171.9,231.4 171.4,229.0 170.9,226.7 170.4,224.3 169.9,222.0 169.4,219.6 168.9,217.2 168.4,214.9 167.8,212.5 167.3,210.1 166.8,207.7 166.2,205.2 165.7,202.8 165.2,200.3 164.6,197.8 164.1,195.3 163.5,192.8 163.0,190.3 162.5,187.7 162.0,185.1 161.4,182.5 160.9,179.8 160.4,177.1 159.9,174.4 159.4,171.6 159.0,168.8" fill="#4a90c4" fill-opacity="0.82"/>
<text x="90" y="228" class="alab">Sacramento</text>
<text x="90" y="241" class="aval">30.2 maf</text>
<polygon points="199.1,268.6 198.2,269.3 197.4,269.9 196.6,270.6 195.7,271.2 194.9,271.8 194.1,272.5 193.3,273.1 192.5,273.7 191.7,274.2 191.0,274.8 190.2,275.4 189.4,275.9 188.7,276.5 187.9,277.0 187.2,277.6 186.4,278.1 185.7,278.6 185.0,279.1 184.2,279.6 183.5,280.1 182.8,280.6 182.1,281.1 181.4,281.5 180.7,282.0 179.9,282.5 179.2,283.0 178.5,283.4 177.8,283.9 177.1,284.4 176.4,284.8 175.7,285.3 175.0,285.8 174.3,286.2 173.6,286.7 172.9,287.1 172.2,287.6 170.8,285.5 164.3,294.6 175.1,291.9 173.7,289.8 174.4,289.3 175.1,288.9 175.8,288.4 176.5,288.0 177.2,287.5 177.9,287.0 178.6,286.6 179.3,286.1 180.0,285.6 180.7,285.2 181.4,284.7 182.1,284.2 182.8,283.7 183.6,283.3 184.3,282.8 185.0,282.3 185.7,281.8 186.5,281.3 187.2,280.8 187.9,280.2 188.7,279.7 189.4,279.2 190.2,278.6 191.0,278.1 191.7,277.5 192.5,277.0 193.3,276.4 194.1,275.8 194.9,275.2 195.7,274.6 196.5,273.9 197.4,273.3 198.2,272.7 199.0,272.0 199.9,271.3 200.7,270.6" fill="#4a90c4" fill-opacity="0.82"/>
<text x="230" y="261" class="alab">Eastside</text>
<text x="230" y="274" class="aval">1.8 maf</text>
<polygon points="234.7,365.6 233.0,365.1 231.4,364.6 229.7,364.0 228.1,363.4 226.5,362.8 224.9,362.2 223.3,361.6 221.7,360.9 220.2,360.2 218.7,359.5 217.1,358.8 215.6,358.0 214.1,357.2 212.6,356.4 211.2,355.6 209.7,354.7 208.3,353.8 206.8,352.9 205.4,352.0 204.0,351.0 202.6,350.0 201.2,349.0 199.8,348.0 198.4,346.9 197.1,345.8 195.7,344.7 194.3,343.5 193.0,342.3 191.7,341.1 190.4,339.9 189.0,338.6 187.7,337.3 186.4,335.9 185.1,334.6 183.8,333.2 182.6,331.7 181.3,330.2 180.0,328.7 178.8,327.2 177.5,325.6 176.3,324.0 175.0,322.4 173.8,320.7 179.8,316.2 164.3,314.0 161.4,329.9 167.4,325.4 168.7,327.1 170.0,328.8 171.3,330.5 172.6,332.2 174.0,333.8 175.3,335.4 176.6,336.9 178.0,338.4 179.3,339.9 180.7,341.4 182.1,342.8 183.5,344.2 184.9,345.6 186.3,346.9 187.7,348.2 189.2,349.5 190.6,350.7 192.1,351.9 193.5,353.1 195.0,354.2 196.5,355.4 198.0,356.5 199.5,357.5 201.0,358.6 202.6,359.6 204.1,360.5 205.7,361.5 207.2,362.4 208.8,363.3 210.4,364.2 212.0,365.0 213.6,365.9 215.3,366.6 216.9,367.4 218.6,368.1 220.3,368.9 222.0,369.6 223.7,370.2 225.4,370.9 227.1,371.5 228.9,372.1 230.6,372.6 232.4,373.2" fill="#4a90c4" fill-opacity="0.82"/>
<text x="280" y="379" class="alab">San Joaquin</text>
<text x="280" y="392" class="aval">5.3 maf</text>
<polygon points="140.6,283.6 139.7,283.8 138.5,284.0 137.3,284.3 136.2,284.6 135.0,284.9 133.9,285.3 132.7,285.7 131.6,286.1 130.5,286.5 129.3,287.0 128.3,287.5 127.2,288.0 126.1,288.5 125.0,289.1 124.0,289.6 122.9,290.2 121.9,290.9 120.9,291.5 119.9,292.1 118.9,292.8 117.9,293.5 116.9,294.2 115.9,294.9 114.9,295.6 113.9,296.4 112.9,297.2 111.8,298.0 110.8,298.8 109.8,299.6 108.8,300.4 107.7,301.3 106.7,302.2 97.7,291.5 103.0,336.1 144.9,347.0 135.8,336.3 136.7,335.6 137.5,334.9 138.2,334.3 139.0,333.7 139.7,333.1 140.4,332.6 141.0,332.1 141.6,331.6 142.2,331.2 142.8,330.8 143.3,330.4 143.8,330.0 144.3,329.7 144.7,329.5 145.1,329.2 145.5,329.0 145.9,328.8 146.2,328.6 146.5,328.4 146.8,328.3 147.0,328.2 147.2,328.1 147.4,328.0 147.6,328.0 147.7,327.9 147.8,327.9 147.9,327.8 148.0,327.8 148.1,327.8 148.2,327.8 148.2,327.8 148.6,327.7" fill="#2b6ca3" fill-opacity="0.82"/>
<text x="92" y="367" class="alab">Delta outflow</text>
<text x="92" y="380" class="aval">29.9 maf</text>
<polygon points="156.6,327.2 158.4,331.3 160.1,335.4 161.9,339.4 163.7,343.4 165.6,347.4 167.5,351.3 169.4,355.2 171.3,359.1 173.3,362.9 175.3,366.7 177.4,370.4 179.4,374.2 181.5,377.9 183.7,381.5 185.8,385.1 188.0,388.7 190.2,392.3 192.4,395.8 194.7,399.3 196.9,402.7 199.2,406.2 201.5,409.5 203.8,412.9 206.2,416.2 208.5,419.5 210.9,422.7 213.3,425.9 215.7,429.1 218.1,432.2 220.5,435.3 223.0,438.4 225.4,441.4 227.9,444.4 230.3,447.4 232.8,450.3 235.3,453.2 237.8,456.0 240.3,458.9 242.8,461.6 245.3,464.4 247.8,467.1 250.3,469.8 252.7,472.4 255.2,475.0 257.7,477.6 254.0,481.2 267.1,483.1 265.4,470.0 261.7,473.7 259.2,471.2 256.7,468.6 254.3,466.0 251.8,463.3 249.3,460.6 246.9,457.9 244.4,455.2 241.9,452.4 239.5,449.6 237.0,446.7 234.6,443.8 232.1,440.9 229.7,437.9 227.3,434.9 224.9,431.9 222.5,428.8 220.1,425.7 217.7,422.6 215.3,419.4 213.0,416.2 210.7,413.0 208.4,409.7 206.1,406.4 203.8,403.1 201.5,399.7 199.3,396.3 197.1,392.8 194.9,389.4 192.7,385.9 190.5,382.3 188.4,378.7 186.3,375.1 184.3,371.5 182.2,367.8 180.2,364.1 178.2,360.3 176.2,356.5 174.3,352.7 172.4,348.9 170.5,345.0 168.7,341.1 166.9,337.1 165.2,333.2 163.4,329.2 161.7,325.1" fill="#d97e2a" fill-opacity="0.82"/>
<text x="276" y="451" class="alab">SWP exports</text>
<text x="276" y="464" class="aval">3.7 maf</text>
<polygon points="162.4,331.3 162.9,332.7 163.4,334.0 163.9,335.4 164.5,336.7 165.0,338.0 165.5,339.3 166.1,340.6 166.6,341.9 167.2,343.1 167.7,344.3 168.3,345.5 168.9,346.7 169.5,347.9 170.1,349.0 170.7,350.2 171.3,351.3 171.9,352.4 172.5,353.5 173.2,354.6 173.8,355.7 174.5,356.7 175.1,357.8 175.8,358.8 176.5,359.8 177.2,360.8 177.9,361.8 178.6,362.8 179.4,363.8 180.1,364.8 180.8,365.7 181.6,366.7 182.4,367.6 183.2,368.6 184.0,369.5 184.8,370.4 185.6,371.3 186.5,372.3 187.3,373.2 188.2,374.1 189.1,375.0 186.3,377.7 197.9,380.5 194.7,369.4 192.0,372.1 191.1,371.2 190.3,370.4 189.5,369.5 188.6,368.6 187.8,367.7 187.1,366.8 186.3,365.9 185.5,365.0 184.8,364.1 184.0,363.2 183.3,362.3 182.6,361.3 181.9,360.4 181.2,359.4 180.5,358.5 179.9,357.5 179.2,356.5 178.5,355.5 177.9,354.5 177.3,353.5 176.7,352.5 176.0,351.4 175.4,350.4 174.8,349.3 174.2,348.2 173.7,347.1 173.1,346.0 172.5,344.9 172.0,343.7 171.4,342.6 170.9,341.4 170.3,340.2 169.8,339.0 169.3,337.8 168.8,336.5 168.3,335.2 167.7,333.9 167.2,332.6 166.7,331.3 166.3,329.9" fill="#a85d1c" fill-opacity="0.82"/>
<text x="172" y="410" class="alab">CVP exports</text>
<text x="172" y="423" class="aval">2.7 maf</text>
<text x="693.2" y="46" class="ptitle">Critical year (average of 18)</text>
<polygon points="542.1,116.3 539.1,104.3 531.9,99.3 530.1,96.4 531.6,93.0 536.2,94.4 536.0,88.3 534.5,86.7 705.7,86.9 705.6,253.0 804.5,351.6 860.1,410.6 917.8,474.6 917.8,481.8 921.0,487.7 924.3,490.8 926.1,496.3 925.6,497.1 927.8,500.8 927.6,504.8 929.6,505.2 935.9,510.8 937.7,515.6 936.4,515.8 933.8,519.8 925.7,525.4 925.6,528.9 921.7,533.9 922.8,535.5 922.1,535.7 923.0,537.5 921.9,538.1 922.0,540.5 923.3,546.4 921.9,548.2 922.6,549.0 921.5,552.9 922.2,555.0 919.5,558.0 917.5,562.5 914.2,563.2 915.3,566.1 914.0,568.9 916.3,571.3 915.0,580.8 916.6,583.8 917.3,582.9 918.4,584.1 922.3,584.0 923.4,587.2 924.4,587.2 924.3,594.2 921.9,597.0 922.1,599.1 918.5,600.7 915.1,599.7 914.4,601.2 816.2,611.8 815.4,606.6 813.6,606.7 812.0,604.7 810.7,594.5 811.5,591.0 809.4,581.5 805.8,573.9 801.7,568.3 794.9,562.9 792.0,558.4 782.7,551.3 779.7,547.0 772.1,549.1 766.2,545.4 765.6,541.1 767.0,538.6 762.7,530.9 755.9,531.3 752.5,533.1 749.6,530.9 738.9,528.0 736.6,526.7 731.9,517.1 722.0,510.1 719.4,509.9 716.9,511.6 699.8,506.8 687.6,508.5 684.9,506.9 683.5,503.1 678.6,501.0 677.4,498.3 679.3,491.6 677.9,488.7 679.0,483.7 676.6,480.2 678.4,469.3 674.0,468.3 669.3,464.4 667.6,460.9 669.1,455.4 668.7,453.0 664.4,451.5 658.1,442.4 653.3,440.1 650.5,432.4 646.3,428.0 643.9,422.4 641.1,420.5 637.3,412.2 631.3,407.6 628.2,403.5 627.3,396.0 624.8,387.2 626.5,383.4 623.5,368.8 616.6,364.6 614.1,360.8 611.7,360.2 608.2,354.0 607.4,350.0 608.1,344.5 606.4,339.4 603.8,336.1 603.3,320.1 599.8,316.8 596.2,315.9 591.4,309.9 588.8,311.7 584.3,310.7 583.6,308.0 586.4,300.1 581.7,292.0 581.7,289.2 580.5,286.9 578.3,283.9 572.7,280.1 566.8,270.7 556.0,258.9 555.0,255.1 556.8,252.5 556.9,250.7 551.6,233.7 552.4,225.6 554.0,222.5 551.4,209.7 544.3,199.1 542.2,197.5 541.4,194.0 538.3,192.3 531.2,185.0 530.5,177.5 528.5,173.8 531.2,164.4 538.3,149.3 539.9,143.5 540.2,142.0 538.5,139.5 537.5,134.6 539.7,131.8 541.1,126.0 538.8,125.3 537.9,123.0 539.3,120.7 541.9,120.9 542.1,116.3" fill="#ececec" stroke="#b5b5b5" stroke-width="1"/>
<polygon points="611.3,173.5 611.8,176.4 612.3,179.3 612.8,182.2 613.3,185.0 613.9,187.8 614.4,190.6 614.9,193.3 615.5,196.0 616.0,198.6 616.6,201.2 617.1,203.8 617.7,206.3 618.2,208.8 618.8,211.3 619.3,213.7 619.9,216.2 620.4,218.6 620.9,220.9 621.5,223.3 622.0,225.6 622.5,227.9 623.0,230.2 623.4,232.4 623.9,234.7 624.3,236.9 624.8,239.1 625.2,241.3 625.6,243.5 626.0,245.6 626.4,247.8 626.7,249.9 627.1,252.0 627.4,254.2 627.7,256.3 627.9,258.4 628.2,260.5 628.4,262.6 628.6,264.7 628.8,266.8 628.9,268.9 629.0,271.0 629.1,273.2 618.7,273.6 634.4,286.2 650.4,272.3 640.0,272.7 640.0,270.5 639.8,268.2 639.7,266.0 639.5,263.8 639.3,261.5 639.1,259.3 638.8,257.1 638.5,254.9 638.2,252.6 637.9,250.4 637.5,248.2 637.2,246.0 636.8,243.7 636.4,241.5 636.0,239.2 635.5,237.0 635.1,234.7 634.6,232.5 634.1,230.2 633.7,227.9 633.2,225.6 632.7,223.3 632.1,220.9 631.6,218.6 631.1,216.2 630.6,213.8 630.0,211.4 629.5,208.9 628.9,206.5 628.4,204.0 627.9,201.5 627.3,198.9 626.8,196.3 626.2,193.7 625.7,191.1 625.1,188.4 624.6,185.7 624.1,183.0 623.6,180.2 623.1,177.4 622.5,174.6 622.1,171.7" fill="#4a90c4" fill-opacity="0.82"/>
<text x="570" y="228" class="alab">Sacramento</text>
<text x="570" y="241" class="aval">7.3 maf</text>
<polygon points="679.2,268.7 678.4,269.4 677.5,270.1 676.7,270.8 675.9,271.4 675.1,272.0 674.2,272.6 673.4,273.2 672.6,273.8 671.9,274.4 671.1,275.0 670.3,275.6 669.5,276.1 668.8,276.7 668.0,277.2 667.3,277.7 666.6,278.3 665.8,278.8 665.1,279.3 664.4,279.8 663.6,280.3 662.9,280.8 662.2,281.2 661.5,281.7 660.8,282.2 660.1,282.7 659.4,283.1 658.7,283.6 658.0,284.1 657.3,284.5 656.6,285.0 655.9,285.5 655.2,285.9 654.5,286.4 653.8,286.9 653.0,287.3 652.3,287.8 651.2,286.0 644.3,294.6 654.7,291.4 653.6,289.6 654.3,289.2 655.0,288.7 655.7,288.2 656.4,287.8 657.1,287.3 657.8,286.8 658.5,286.4 659.2,285.9 659.9,285.5 660.6,285.0 661.3,284.5 662.0,284.0 662.7,283.6 663.4,283.1 664.2,282.6 664.9,282.1 665.6,281.6 666.3,281.1 667.1,280.6 667.8,280.1 668.6,279.5 669.3,279.0 670.1,278.5 670.8,277.9 671.6,277.3 672.4,276.8 673.2,276.2 674.0,275.6 674.8,275.0 675.6,274.4 676.4,273.8 677.2,273.1 678.1,272.5 678.9,271.8 679.7,271.2 680.6,270.5" fill="#4a90c4" fill-opacity="0.82"/>
<text x="710" y="261" class="alab">Eastside</text>
<text x="710" y="274" class="aval">0.2 maf</text>
<polygon points="713.9,368.4 712.1,367.8 710.5,367.3 708.8,366.7 707.1,366.1 705.5,365.5 703.8,364.9 702.2,364.2 700.6,363.5 699.0,362.8 697.4,362.1 695.9,361.3 694.3,360.5 692.8,359.7 691.3,358.9 689.8,358.1 688.3,357.2 686.8,356.3 685.3,355.3 683.8,354.4 682.4,353.4 680.9,352.4 679.5,351.3 678.1,350.2 676.7,349.1 675.3,348.0 673.9,346.8 672.5,345.7 671.1,344.4 669.7,343.2 668.4,341.9 667.0,340.6 665.7,339.3 664.4,337.9 663.0,336.5 661.7,335.1 660.4,333.6 659.1,332.1 657.8,330.6 656.5,329.0 655.3,327.4 654.0,325.8 652.7,324.1 651.5,322.4 653.1,321.1 644.3,314.0 648.0,324.9 649.7,323.7 651.0,325.4 652.3,327.1 653.5,328.8 654.8,330.4 656.1,332.0 657.5,333.5 658.8,335.0 660.1,336.5 661.4,338.0 662.8,339.4 664.1,340.8 665.5,342.2 666.9,343.5 668.2,344.8 669.6,346.1 671.0,347.3 672.4,348.5 673.9,349.7 675.3,350.9 676.7,352.0 678.2,353.1 679.6,354.1 681.1,355.2 682.6,356.2 684.1,357.2 685.6,358.1 687.1,359.1 688.7,360.0 690.2,360.8 691.8,361.7 693.3,362.5 694.9,363.3 696.5,364.1 698.1,364.8 699.7,365.5 701.4,366.2 703.0,366.9 704.7,367.6 706.4,368.2 708.1,368.8 709.8,369.4 711.5,369.9 713.2,370.5" fill="#4a90c4" fill-opacity="0.82"/>
<text x="760" y="379" class="alab">San Joaquin</text>
<text x="760" y="392" class="aval">1.0 maf</text>
<polygon points="623.9,302.1 623.3,302.2 622.6,302.4 621.8,302.6 621.1,302.7 620.4,302.9 619.7,303.2 619.0,303.4 618.3,303.7 617.6,304.0 616.9,304.3 616.1,304.6 615.4,304.9 614.7,305.3 613.9,305.7 613.2,306.1 612.4,306.5 611.7,307.0 610.9,307.4 610.1,307.9 609.4,308.5 608.6,309.0 607.8,309.6 606.9,310.1 606.1,310.7 605.3,311.4 604.4,312.0 603.5,312.7 602.7,313.4 601.8,314.2 600.8,314.9 599.9,315.7 598.9,316.5 598.0,317.4 597.0,318.2 596.0,319.1 594.9,320.1 593.9,321.0 592.8,322.0 591.7,323.0 590.6,324.1 589.4,325.1 588.2,326.2 583.6,321.3 583.0,336.1 597.8,336.4 593.1,331.5 594.3,330.4 595.4,329.3 596.5,328.3 597.6,327.3 598.7,326.3 599.7,325.4 600.7,324.5 601.7,323.6 602.7,322.8 603.6,322.0 604.5,321.2 605.4,320.4 606.3,319.7 607.2,319.0 608.0,318.3 608.8,317.7 609.6,317.1 610.4,316.5 611.1,315.9 611.9,315.4 612.6,314.9 613.3,314.4 614.0,313.9 614.7,313.5 615.4,313.1 616.0,312.7 616.7,312.3 617.3,312.0 617.9,311.7 618.5,311.4 619.1,311.1 619.7,310.8 620.3,310.6 620.8,310.4 621.4,310.2 621.9,310.0 622.5,309.8 623.0,309.6 623.6,309.5 624.1,309.4 624.6,309.3 625.2,309.2" fill="#2b6ca3" fill-opacity="0.82"/>
<text x="572" y="367" class="alab">Delta outflow</text>
<text x="572" y="380" class="aval">4.8 maf</text>
<polygon points="638.2,326.6 639.9,330.7 641.6,334.7 643.4,338.7 645.2,342.7 647.1,346.7 648.9,350.6 650.9,354.5 652.8,358.3 654.8,362.1 656.8,365.9 658.8,369.6 660.9,373.4 663.0,377.0 665.1,380.7 667.2,384.3 669.4,387.9 671.6,391.4 673.8,394.9 676.1,398.4 678.3,401.8 680.6,405.2 682.9,408.6 685.2,411.9 687.5,415.2 689.9,418.5 692.2,421.7 694.6,424.9 697.0,428.1 699.4,431.2 701.8,434.3 704.3,437.4 706.7,440.4 709.2,443.4 711.6,446.3 714.1,449.2 716.5,452.1 719.0,454.9 721.5,457.7 724.0,460.5 726.5,463.3 729.0,466.0 731.5,468.6 734.0,471.2 736.4,473.8 738.9,476.4 737.4,477.9 747.1,483.1 742.0,473.4 740.5,474.9 738.0,472.3 735.5,469.7 733.1,467.1 730.6,464.5 728.1,461.8 725.6,459.0 723.1,456.3 720.7,453.5 718.2,450.7 715.8,447.8 713.3,444.9 710.9,442.0 708.4,439.0 706.0,436.0 703.6,432.9 701.2,429.9 698.8,426.7 696.4,423.6 694.0,420.4 691.7,417.2 689.3,414.0 687.0,410.7 684.7,407.4 682.4,404.0 680.1,400.6 677.9,397.2 675.7,393.7 673.5,390.2 671.3,386.7 669.1,383.2 667.0,379.6 664.9,375.9 662.8,372.3 660.8,368.6 658.7,364.9 656.7,361.1 654.8,357.3 652.8,353.5 650.9,349.6 649.0,345.7 647.2,341.8 645.4,337.8 643.6,333.8 641.9,329.8 640.2,325.7" fill="#d97e2a" fill-opacity="0.82"/>
<text x="756" y="451" class="alab">SWP exports</text>
<text x="756" y="464" class="aval">0.9 maf</text>
<polygon points="643.3,331.0 643.8,332.4 644.3,333.7 644.8,335.1 645.3,336.4 645.8,337.7 646.4,339.0 646.9,340.2 647.5,341.5 648.0,342.7 648.6,343.9 649.1,345.1 649.7,346.3 650.3,347.5 650.9,348.6 651.5,349.7 652.1,350.8 652.7,351.9 653.3,353.0 653.9,354.1 654.6,355.2 655.2,356.2 655.9,357.3 656.6,358.3 657.3,359.3 658.0,360.3 658.7,361.3 659.4,362.3 660.1,363.2 660.8,364.2 661.6,365.2 662.3,366.1 663.1,367.0 663.9,368.0 664.7,368.9 665.5,369.8 666.3,370.7 667.1,371.6 668.0,372.5 668.9,373.4 669.7,374.3 668.2,375.8 677.9,380.5 672.8,371.3 671.3,372.7 670.4,371.9 669.6,371.0 668.8,370.1 668.0,369.2 667.2,368.3 666.4,367.4 665.6,366.5 664.8,365.6 664.1,364.7 663.3,363.8 662.6,362.8 661.9,361.9 661.2,360.9 660.5,360.0 659.8,359.0 659.1,358.0 658.4,357.0 657.8,356.0 657.1,355.0 656.5,354.0 655.9,353.0 655.2,351.9 654.6,350.9 654.0,349.8 653.4,348.7 652.8,347.6 652.3,346.4 651.7,345.3 651.1,344.2 650.6,343.0 650.0,341.8 649.5,340.6 649.0,339.4 648.4,338.1 647.9,336.8 647.4,335.6 646.9,334.3 646.4,332.9 645.9,331.6 645.4,330.2" fill="#a85d1c" fill-opacity="0.82"/>
<text x="652" y="410" class="alab">CVP exports</text>
<text x="652" y="423" class="aval">1.5 maf</text>
<polygon points="53.8,690.0 53.8,688.8 53.8,687.5 53.8,686.3 53.7,685.0 53.8,683.8 53.8,682.5 53.8,681.3 53.8,680.0 53.8,678.8 53.8,677.5 53.8,676.3 53.8,675.0 53.8,673.8 53.8,672.5 53.8,671.3 53.8,670.1 53.7,668.8 53.8,667.6 53.8,666.4 53.7,665.1 53.8,663.9 53.8,662.7 53.7,661.5 53.8,660.2 53.8,659.0 53.8,657.8 53.8,656.6 53.8,655.4 53.7,654.2 53.8,653.0 53.8,651.8 53.8,650.6 53.8,649.4 53.8,648.2 53.8,647.0 53.8,645.8 53.8,644.7 53.8,643.5 53.8,642.3 60.9,642.3 50.0,632.0 39.1,642.3 46.2,642.3 46.2,643.5 46.2,644.7 46.2,645.8 46.2,647.0 46.2,648.2 46.2,649.4 46.2,650.6 46.3,651.8 46.2,653.0 46.2,654.2 46.2,655.4 46.2,656.6 46.2,657.8 46.3,659.0 46.2,660.2 46.2,661.5 46.3,662.7 46.2,663.9 46.2,665.1 46.3,666.4 46.2,667.6 46.2,668.8 46.3,670.1 46.2,671.3 46.2,672.5 46.3,673.8 46.2,675.0 46.2,676.3 46.2,677.5 46.2,678.8 46.3,680.0 46.2,681.3 46.2,682.5 46.3,683.8 46.2,685.0 46.2,686.3 46.3,687.5 46.2,688.8 46.2,690.0" fill="#4a90c4" fill-opacity="0.82"/>
<text x="50" y="710" class="leg" text-anchor="middle">5 maf</text>
<polygon points="128.8,690.0 128.8,688.8 128.8,687.5 128.8,686.3 128.8,685.0 128.8,683.8 128.8,682.5 128.8,681.3 128.8,680.0 128.8,678.8 128.8,677.5 128.8,676.3 128.8,675.0 128.8,673.8 128.8,672.5 128.8,671.3 128.8,670.1 128.8,668.8 128.8,667.6 128.8,666.4 128.7,665.1 128.8,663.9 128.8,662.7 128.8,661.5 128.8,660.3 128.8,659.0 128.8,657.8 128.8,656.6 142.8,656.6 110.0,632.0 77.2,656.6 91.2,656.6 91.2,657.8 91.2,659.0 91.2,660.2 91.2,661.5 91.3,662.7 91.2,663.9 91.2,665.1 91.3,666.4 91.2,667.6 91.2,668.8 91.3,670.1 91.2,671.3 91.2,672.5 91.3,673.8 91.2,675.0 91.2,676.3 91.2,677.5 91.2,678.8 91.2,680.0 91.2,681.3 91.2,682.5 91.3,683.8 91.2,685.0 91.2,686.3 91.2,687.5 91.2,688.8 91.2,690.0" fill="#4a90c4" fill-opacity="0.82"/>
<text x="110" y="710" class="leg" text-anchor="middle">25 maf</text>
</svg>